<svg width="18" height="20" viewBox="0 0 18 20" fill="none" xmlns="http://www.w3.org/2000/svg">
<path d="M3.66665 10.6667H2.99998V9.33333H3.66665C4.03484 9.33333 4.33331 9.63181 4.33331 10C4.33331 10.3682 4.03484 10.6667 3.66665 10.6667Z" fill="#808189"/>
<path d="M8.33331 13.3333V9.33333H8.99998C9.36817 9.33333 9.66665 9.63181 9.66665 10V12.6667C9.66665 13.0349 9.36817 13.3333 8.99998 13.3333H8.33331Z" fill="#808189"/>
<path fill-rule="evenodd" clip-rule="evenodd" d="M0.333313 2C0.333313 0.89543 1.22874 0 2.33331 0H13.2761L17.6666 4.39052V18C17.6666 19.1046 16.7712 20 15.6666 20H2.33331C1.22874 20 0.333313 19.1046 0.333313 18V2ZM3.66665 8H1.66665V14.6667H2.99998V12H3.66665C4.77122 12 5.66665 11.1046 5.66665 10C5.66665 8.89543 4.77122 8 3.66665 8ZM8.99998 8H6.99998V14.6667H8.99998C10.1045 14.6667 11 13.7712 11 12.6667V10C11 8.89543 10.1045 8 8.99998 8ZM12.3333 14.6667V8H16.3333V9.33333H13.6666V10.6667H15V12H13.6666V14.6667H12.3333Z" fill="#808189"/>
</svg>
